<svg xmlns="http://www.w3.org/2000/svg" width="358.7" height="261.4" class="looka-1j8o68f" viewBox="0 0 350 255"><defs><linearGradient id="a" x1="0" x2="0" y1="0" y2="1"><stop offset="0" stop-color="#f5ec9b"/><stop offset=".3" stop-color="#905e26"/><stop offset=".3" stop-color="#f5ec9b"/><stop offset="1" stop-color="#905e26"/></linearGradient></defs><path fill="url(#a)" fill-rule="evenodd" d="M5 65 175 0l170 65-170-55zm0 101 170 80 170-85-170 75z" transform="translate(0 9)"/><path fill="#ffe19e" d="M0 155V91.2h4.7V155H0zm7.8 0V91.2h4.8V155H7.8zm42 1.2c-17.7 0-31.5-15.3-31.5-33.1C18.3 108.5 29 90 49.7 90a32 32 0 0 1 30 22.8H66.4a19 19 0 0 0-16.7-10.6c-10.6 0-19.1 9.3-19.1 20.9 0 11.5 8.5 20.8 19.1 20.8a19 19 0 0 0 16.7-10.5h5a23.7 23.7 0 0 1-21.7 15A24.6 24.6 0 0 1 26 123.2a24.2 24.2 0 0 1 23.7-25.4c7.3 0 14.9 3.7 19.4 10.5h3.6a26.8 26.8 0 0 0-23-13.6c-15 0-26.8 13.1-26.8 28.5s11.8 28.5 26.8 28.5c11.7 0 21.3-7.7 25-18.2h5a31.8 31.8 0 0 1-30 22.8zm67 0c-17.6 0-31.4-15.3-31.4-33.1 0-14.6 10.7-33.1 31.4-33.1a32.3 32.3 0 0 1 31.5 33c0 20.8-16.4 33.2-31.5 33.2zm0-4.6c15.3 0 27-13 27-28.5 0-15.4-11.9-28.5-27-28.5-15 0-26.8 13.1-26.8 28.5s11.8 28.5 26.8 28.5zm0-3.1A24.6 24.6 0 0 1 93.1 123a24.2 24.2 0 0 1 23.7-25.4c11.5 0 23.8 9.3 23.8 25.4 0 13.6-10.2 25.4-23.8 25.4zm0-4.6c10.7 0 19.2-9.3 19.2-20.8 0-11.6-8.5-20.9-19.2-20.9-10.6 0-19.1 9.3-19.1 20.9 0 11.5 8.5 20.8 19.1 20.8zm37.2 11V91.3h27.5a19.1 19.1 0 0 1 19 19 19 19 0 0 1-16.2 18.8l17.6 26h-5.6l-20.8-30.4h6c8 0 14.5-6.5 14.5-14.4s-6.5-14.5-14.5-14.5h-22.7V155H154zm7.9 0V99h19.6a11.3 11.3 0 0 1 0 22.6h-8.2l-3-4.6h11.2c3.8 0 6.8-3 6.8-6.7s-3-6.8-6.8-6.8h-14.9V117l25.6 38h-5.6l-20-29.6V155h-4.7zm45.7 0V91.3h4.7V155h-4.7zm34.7 0-26.2-63.7h5l26.3 63.8h-5zm5-8.3-4.7-11.5v-44h4.8v55.5zm3.2 8.4V91.2h4.7V155h-4.7zm-35 0V98.8l23 56.2h-4.9l-13.4-32.7V155h-4.7zm45.5-41.2V91.2h35.4v4.5h-30.7v18.1H261zm7.8 0v-15h27.6v4.6h-22.9v10.4h-4.7zM261 155v-38h26v4.5h-21.3V155H261zm7.8-7.7v-22.7H287v4.6h-13.5v13.5h23v4.6h-27.7zm0 7.7v-4.6h27.6v4.6h-27.6zm33.4 0V91.2h27.5a19.1 19.1 0 0 1 19 19c0 5-2 9.8-5.6 13.4a19 19 0 0 1-10.7 5.4l17.6 26h-5.6l-20.7-30.4h6c7.9 0 14.4-6.5 14.4-14.4s-6.5-14.5-14.4-14.5h-22.8V155h-4.7zm7.8 0V98.9h19.7a11.3 11.3 0 0 1 0 22.6h-8.3l-3-4.6h11.3c3.7 0 6.7-3 6.7-6.7s-3-6.8-6.7-6.8h-15V117l25.6 38h-5.6l-20-29.6V155H310z"/></svg>